<?xml version="1.0" encoding="UTF-8" standalone="no"?><!DOCTYPE svg PUBLIC "-//W3C//DTD SVG 1.1//EN" "http://www.w3.org/Graphics/SVG/1.1/DTD/svg11.dtd"><svg width="100%" height="100%" viewBox="0 0 35 40" version="1.1" xmlns="http://www.w3.org/2000/svg" xmlns:xlink="http://www.w3.org/1999/xlink" xml:space="preserve" xmlns:serif="http://www.serif.com/" style="fill-rule:evenodd;clip-rule:evenodd;stroke-linejoin:round;stroke-miterlimit:1.41421;"><rect id="log" x="0" y="0" width="34.6" height="40" style="fill:none;"/><clipPath id="_clip1"><rect x="0" y="0" width="34.6" height="40"/></clipPath><g clip-path="url(#_clip1)"><path id="Mask" d="M17.3,0l17.321,10l0,20l-17.321,10l-17.321,-10l0,-20l17.321,-10Z" style="fill:#304250;fill-rule:nonzero;"/><path id="Mask1" serif:id="Mask" d="M17.3,8.462l9.993,5.769l0,11.538l-9.993,5.769l-9.993,-5.769l0,-11.538l9.993,-5.769Z" style="fill:#298192;fill-rule:nonzero;"/><circle cx="7.307" cy="14.134" r="2.444" style="fill:#21a2a8;"/><circle cx="17.3" cy="31.538" r="2.444" style="fill:#21a2a8;"/><circle cx="27.293" cy="14.134" r="2.444" style="fill:#21a2a8;"/><path d="M7.307,25.769l9.993,-17.307l9.993,17.307l-19.986,0Z" style="fill:#46bbae;"/><circle cx="7.307" cy="25.769" r="2.444" style="fill:#fff;"/><circle cx="27.293" cy="25.769" r="2.444" style="fill:#fff;"/><circle cx="17.3" cy="8.462" r="2.444" style="fill:#fff;"/></g></svg>